<?xml version="1.0" encoding="UTF-8" standalone="no"?>
<!DOCTYPE svg PUBLIC "-//W3C//DTD SVG 1.1//EN" "http://www.w3.org/Graphics/SVG/1.1/DTD/svg11.dtd">
<svg version="1.1" xmlns="http://www.w3.org/2000/svg" xmlns:xlink="http://www.w3.org/1999/xlink" preserveAspectRatio="xMidYMid meet" viewBox="0 0 640 640" width="640" height="640"><defs><path d="M464.39 570.67C602.65 490.84 650.03 314.04 570.2 175.77C490.37 37.5 313.57 -9.87 175.3 69.95C37.03 149.78 -10.34 326.58 69.49 464.85C149.32 603.12 326.12 650.49 464.39 570.67Z" id="e2g3o7UHpl"></path><path d="M462.63 345.74C291.48 345.74 196.4 345.74 177.38 345.74C174.99 345.74 173.8 344.54 173.8 342.15C173.8 316.69 173.8 302.54 173.8 299.71C173.8 297.33 174.99 296.13 177.38 296.13C348.53 296.13 443.62 296.13 462.63 296.13C465.02 296.13 466.22 297.33 466.22 299.71C466.22 325.18 466.22 339.33 466.22 342.15C466.22 344.54 465.02 345.74 462.63 345.74Z" id="b1HdtvGDT"></path><path d="M462.63 345.74C291.48 345.74 196.4 345.74 177.38 345.74C174.99 345.74 173.8 344.54 173.8 342.15C173.8 316.69 173.8 302.54 173.8 299.71C173.8 297.33 174.99 296.13 177.38 296.13C348.53 296.13 443.62 296.13 462.63 296.13C465.02 296.13 466.22 297.33 466.22 299.71C466.22 325.18 466.22 339.33 466.22 342.15C466.22 344.54 465.02 345.74 462.63 345.74Z" id="a2LLXMo6Ld"></path></defs><g><g><g><use xlink:href="#e2g3o7UHpl" opacity="1" fill="#000000" fill-opacity="0"></use><g><use xlink:href="#e2g3o7UHpl" opacity="1" fill-opacity="0" stroke="#2c75a9" stroke-width="10" stroke-opacity="1"></use></g></g><g><use xlink:href="#b1HdtvGDT" opacity="1" fill="#2c75a9" fill-opacity="1"></use><g><use xlink:href="#b1HdtvGDT" opacity="1" fill-opacity="0" stroke="#000000" stroke-width="1" stroke-opacity="0"></use></g></g><g><use xlink:href="#a2LLXMo6Ld" opacity="1" fill="#000000" fill-opacity="0"></use><g><use xlink:href="#a2LLXMo6Ld" opacity="1" fill-opacity="0" stroke="#2c75a9" stroke-width="1" stroke-opacity="1"></use></g></g></g></g></svg>