<?xml version="1.0" encoding="UTF-8" standalone="no"?>
<!DOCTYPE svg PUBLIC "-//W3C//DTD SVG 1.1//EN" "http://www.w3.org/Graphics/SVG/1.1/DTD/svg11.dtd">
<svg version="1.1" xmlns="http://www.w3.org/2000/svg" xmlns:xlink="http://www.w3.org/1999/xlink" preserveAspectRatio="xMidYMid meet" viewBox="0 0 640 640" width="640" height="640"><defs><path d="M464.54 570.36C602.81 490.53 650.18 313.73 570.36 175.46C490.53 37.19 313.73 -10.18 175.46 69.64C37.19 149.47 -10.18 326.27 69.64 464.54C149.47 602.81 326.27 650.18 464.54 570.36Z" id="c2qgYQfCX"></path><path d="M344.8 178.41C344.8 349.56 344.8 444.64 344.8 463.66C344.8 466.05 343.6 467.24 341.21 467.24C315.75 467.24 301.6 467.24 298.77 467.24C296.39 467.24 295.19 466.05 295.19 463.66C295.19 292.51 295.19 197.42 295.19 178.41C295.19 176.02 296.39 174.82 298.77 174.82C324.24 174.82 338.39 174.82 341.21 174.82C343.6 174.82 344.8 176.02 344.8 178.41Z" id="a8nf3QaiTg"></path><path d="M344.8 178.41C344.8 349.56 344.8 444.64 344.8 463.66C344.8 466.05 343.6 467.24 341.21 467.24C315.75 467.24 301.6 467.24 298.77 467.24C296.39 467.24 295.19 466.05 295.19 463.66C295.19 292.51 295.19 197.42 295.19 178.41C295.19 176.02 296.39 174.82 298.77 174.82C324.24 174.82 338.39 174.82 341.21 174.82C343.6 174.82 344.8 176.02 344.8 178.41Z" id="b1OCDlJnvk"></path><path d="M462.63 345.74C291.48 345.74 196.4 345.74 177.38 345.74C174.99 345.74 173.8 344.54 173.8 342.15C173.8 316.69 173.8 302.54 173.8 299.71C173.8 297.33 174.99 296.13 177.38 296.13C348.53 296.13 443.62 296.13 462.63 296.13C465.02 296.13 466.22 297.33 466.22 299.71C466.22 325.18 466.22 339.33 466.22 342.15C466.22 344.54 465.02 345.74 462.63 345.74Z" id="b1Y2SFeVpn"></path><path d="M462.63 345.74C291.48 345.74 196.4 345.74 177.38 345.74C174.99 345.74 173.8 344.54 173.8 342.15C173.8 316.69 173.8 302.54 173.8 299.71C173.8 297.33 174.99 296.13 177.38 296.13C348.53 296.13 443.62 296.13 462.63 296.13C465.02 296.13 466.22 297.33 466.22 299.71C466.22 325.18 466.22 339.33 466.22 342.15C466.22 344.54 465.02 345.74 462.63 345.74Z" id="d2qwqrIJY5"></path></defs><g><g><g><use xlink:href="#c2qgYQfCX" opacity="1" fill="#000000" fill-opacity="0"></use><g><use xlink:href="#c2qgYQfCX" opacity="1" fill-opacity="0" stroke="#2c75a9" stroke-width="10" stroke-opacity="1"></use></g></g><g><use xlink:href="#a8nf3QaiTg" opacity="1" fill="#2c75a9" fill-opacity="1"></use><g><use xlink:href="#a8nf3QaiTg" opacity="1" fill-opacity="0" stroke="#000000" stroke-width="1" stroke-opacity="0"></use></g></g><g><use xlink:href="#b1OCDlJnvk" opacity="1" fill="#000000" fill-opacity="0"></use><g><use xlink:href="#b1OCDlJnvk" opacity="1" fill-opacity="0" stroke="#2c75a9" stroke-width="1" stroke-opacity="1"></use></g></g><g><use xlink:href="#b1Y2SFeVpn" opacity="1" fill="#2c75a9" fill-opacity="1"></use><g><use xlink:href="#b1Y2SFeVpn" opacity="1" fill-opacity="0" stroke="#000000" stroke-width="1" stroke-opacity="0"></use></g></g><g><use xlink:href="#d2qwqrIJY5" opacity="1" fill="#000000" fill-opacity="0"></use><g><use xlink:href="#d2qwqrIJY5" opacity="1" fill-opacity="0" stroke="#2c75a9" stroke-width="1" stroke-opacity="1"></use></g></g></g></g></svg>